<?xml version="1.0" standalone="no"?>
<!DOCTYPE svg PUBLIC "-//W3C//DTD SVG 20010904//EN"
 "http://www.w3.org/TR/2001/REC-SVG-20010904/DTD/svg10.dtd">
<svg version="1.0" xmlns="http://www.w3.org/2000/svg"
 width="16.000000pt" height="16.000000pt" viewBox="0 0 16.000000 16.000000"
 preserveAspectRatio="xMidYMid meet">
<metadata>
Created by potrace 1.11, written by Peter Selinger 2001-2013
</metadata>
<g transform="translate(0.000000,16.000000) scale(0.001600,-0.001600)"
fill="#000000" stroke="none">
<path d="M3215 9984 c-76 -27 -127 -58 -176 -108 -160 -162 -164 -412 -9 -576
64 -68 127 -104 221 -126 13 -3 130 -7 259 -8 l235 -2 3 -1295 2 -1295 -102
-162 c-57 -89 -163 -258 -237 -375 -74 -116 -206 -324 -294 -462 -171 -267
-175 -274 -225 -358 -17 -30 -39 -60 -47 -67 -8 -7 -15 -16 -15 -21 0 -4 -35
-63 -78 -131 -44 -68 -154 -242 -247 -388 -92 -146 -182 -287 -200 -315 -17
-27 -70 -111 -117 -185 -47 -74 -180 -283 -295 -465 -228 -360 -399 -629 -561
-885 -58 -91 -125 -198 -151 -237 -25 -40 -68 -108 -95 -150 -27 -43 -65 -103
-84 -133 -19 -30 -45 -71 -57 -90 -12 -19 -49 -77 -81 -128 -33 -51 -75 -118
-95 -150 -35 -54 -92 -145 -155 -242 -16 -25 -31 -49 -34 -55 -3 -5 -18 -30
-34 -55 -75 -114 -98 -153 -135 -222 -177 -328 -205 -639 -78 -883 21 -41 116
-165 126 -165 3 0 26 -19 51 -41 85 -75 253 -146 440 -186 81 -17 261 -18
4030 -18 2170 0 3972 4 4005 8 184 25 386 102 498 189 137 106 219 239 252
407 12 63 13 233 2 281 -3 14 -13 56 -23 95 -18 79 -59 186 -105 278 -27 53
-179 299 -284 462 -18 28 -92 145 -165 260 -73 116 -148 233 -165 260 -18 28
-77 120 -130 205 -161 254 -174 274 -185 287 -5 7 -10 14 -10 17 0 3 -44 74
-98 158 -99 155 -316 497 -427 673 -54 86 -409 645 -735 1158 -69 108 -143
226 -165 260 -74 117 -355 560 -477 752 -67 105 -132 208 -145 230 -13 22
-102 163 -198 314 l-175 274 2 1296 3 1296 225 1 c255 1 293 5 368 42 168 82
264 277 228 462 -21 112 -118 233 -233 291 l-68 34 -1760 2 c-1508 1 -1766 0
-1800 -13z m2200 -2239 l1 -1420 104 -162 c58 -89 214 -335 347 -545 134 -211
337 -531 452 -713 370 -583 535 -843 576 -908 78 -124 218 -344 311 -492 53
-82 96 -154 97 -159 1 -7 -817 -10 -2305 -11 -1270 0 -2308 2 -2308 4 0 2 53
88 118 190 65 102 151 238 191 301 40 63 123 194 184 291 62 97 117 184 122
192 6 9 110 173 231 364 122 192 243 382 268 423 26 41 91 143 144 227 53 84
173 273 267 420 93 147 207 327 253 398 47 72 92 144 101 160 15 27 17 148 16
1435 -1 773 2 1410 6 1415 5 7 150 10 416 10 l408 0 0 -1420z"/>
</g>
</svg>
